<svg version="1.1" xmlns="http://www.w3.org/2000/svg" xmlns:xlink="http://www.w3.org/1999/xlink" width="662.000000pt" height="788.000000pt" viewBox="0,0,215.06487,255.99994"><g fill="#ffffff" fill-rule="nonzero" stroke="none" stroke-width="1" stroke-linecap="butt" stroke-linejoin="miter" stroke-miterlimit="10" stroke-dasharray="" stroke-dashoffset="0" font-family="none" font-weight="none" font-size="none" text-anchor="none" style="mix-blend-mode: normal"><g transform="translate(-3.17504,12.49093) scale(0.32487,0.32487)"><g transform="translate(0,788) scale(0.1,-0.1)"><path d="M3819,7176c-2,-2 -39,-6 -81,-10c-43,-4 -83,-8 -90,-11c-7,-2 -31,-6 -53,-9c-22,-2 -47,-7 -55,-10c-8,-3 -33,-8 -55,-11c-192,-28 -570,-191 -808,-348c-374,-248 -651,-563 -847,-962c-99,-200 -138,-308 -187,-507l-38,-157l-40,-5c-231,-27 -316,-50 -473,-129c-553,-275 -867,-1013 -701,-1650c88,-340 301,-638 592,-830c161,-106 267,-154 432,-197c169,-43 198,-45 759,-45h538l154,570c84,313 152,571 150,573c-2,2 -151,3 -330,3c-179,-1 -326,3 -326,7c0,4 30,46 68,93c37,47 112,144 167,214c55,71 118,150 141,175c22,25 95,115 162,200c66,85 184,236 262,335c78,99 145,187 148,195c5,12 331,432 567,730c28,36 93,119 145,185c94,120 131,167 271,345c41,52 113,143 159,203c46,59 85,106 86,104c2,-2 -116,-452 -261,-1000c-146,-549 -265,-1002 -265,-1006c0,-5 150,-9 333,-10c182,0 333,-1 334,-1c5,0 -200,-255 -217,-270c-9,-8 -113,-136 -231,-285c-194,-243 -350,-440 -782,-982c-75,-94 -137,-175 -137,-179c0,-4 -34,-49 -75,-99c-41,-51 -75,-95 -75,-99c0,-9 988,-5 1105,5c344,29 623,92 875,199c121,52 150,66 240,117c322,182 579,434 760,748c229,395 345,904 327,1430c-9,243 -37,416 -109,660c-74,256 -242,571 -425,802c-96,121 -297,322 -392,393c-19,14 -50,37 -69,53c-19,15 -38,27 -41,27c-4,0 -17,9 -28,19c-11,11 -82,56 -157,100c-302,176 -642,287 -985,321c-97,9 -433,14 -442,6z"></path><path d="M2718,2279c-9,-6 -230,-798 -225,-810c2,-6 647,793 654,810c4,8 -416,8 -429,0z"></path></g></g></g></svg>